<?xml version="1.0" encoding="utf-8"?>
<!-- Generator: Adobe Illustrator 23.0.3, SVG Export Plug-In . SVG Version: 6.00 Build 0)  -->
<svg version="1.1" id="Layer_1" xmlns="http://www.w3.org/2000/svg" xmlns:xlink="http://www.w3.org/1999/xlink" x="0px" y="0px"
	 viewBox="0 0 1200 1200" enable-background="new 0 0 1200 1200" xml:space="preserve">
<g>
	<path fill="#0B2FCB" d="M237.443,979.561c0,0,0,0,0,0.001c0.223,3.555,0.949,7.298,2.099,10.823
		c6.663,20.421,16.383,39.356,28.891,56.279c20.251,27.4,46.186,50.261,77.087,67.949c41.094,23.522,83.553,35.387,126.496,35.387
		c6.399,0,12.819-0.264,19.237-0.792c28.018-2.307,50.649-10.524,69.186-25.119c2.09-1.645,4.205-3.26,6.32-4.875
		c3.358-2.563,6.83-5.214,10.198-7.987c17.519-14.421,34.904-31.177,56.368-54.326c40.169-43.324,79.565-92.93,120.436-151.652
		c17.558-25.227,35.005-52.039,51.856-79.692c4.529-7.432,6.957-13.902,7.872-20.98c1.039-8.039,2.534-16.085,4.117-24.603
		c0.465-2.502,0.936-5.038,1.404-7.618c7.2-3.826,12.837-9.725,17.529-18.28c4.551-8.295,7.37-16.902,8.376-25.582l0.229-1.948
		c0.666-5.642,1.354-11.477,1.225-17.458c-0.085-3.919,0.952-6.882,3.467-9.91c5.658-6.808,10.227-14.79,14.812-25.884l0.705-1.706
		c4.16-10.058,8.462-20.46,11.935-31.087c10.369-31.728,18.849-63.065,25.204-93.14c6.665-31.548,13.352-65.279,20.443-103.12
		c4.608-24.589,8.048-48.626,10.225-71.444c1.346-14.102,3.016-28.45,4.631-42.326c0.443-3.811,0.887-7.621,1.324-11.43
		c0.916-7.965,1.873-15.924,2.833-23.885c0.88-7.309,1.76-14.62,2.607-21.933c1.101-9.509,2.172-19.021,3.243-28.534
		c0.951-8.451,1.903-16.901,2.875-25.349c1.053-9.145,2.133-18.287,3.213-27.429c0.769-6.514,1.539-13.026,2.298-19.541
		c0.557-4.769,1.148-9.536,1.739-14.303c1.429-11.516,2.906-23.424,3.856-35.257c0.752-9.351,0.88-18.783,1.004-27.904
		c0.052-3.845,0.107-7.82,0.207-11.703c0.168-6.484-2.034-12.543-6.735-18.525c-8.284-10.542-19.547-15.572-32.58-14.547
		c-7.514,0.591-14.462,2.738-20.65,6.379c-10.521,6.191-18.204,15.281-23.492,27.792c-4.389,10.381-7.366,21.887-9.076,35.101
		c-3.057-1.837-6.216-3.675-9.555-5.339c-31.452-15.677-56.324-26.177-80.643-34.047c-34.881-11.286-67.471-15.211-99.63-11.989
		c-16.347,1.636-30.563,5.63-43.46,12.209c-14.056,7.171-26.021,15.534-36.578,25.569c-9.745,9.262-19.821,18.84-28.42,30.36
		c-16.513,22.121-28.743,47.683-36.352,75.971c-2.854,10.612-5.29,21.443-7.645,31.919c-1.388,6.172-2.823,12.555-4.32,18.782
		c-5.477,22.785-9.413,46.544-12.032,72.633c-1.613,16.076-3.485,35.074-5.128,54.091c-1.391,16.099-2.708,31.839-3.538,47.42
		c-1.101,20.673-1.021,42.547,0.251,68.838c0.062,1.281,0.059,2.615,0.043,4.011c-9.442,7.706-16.704,16.18-22.141,25.815
		c-5.447,9.652-6.558,19.614-7.634,29.249c-0.199,1.782-0.39,3.5-0.606,5.195c-0.575,0.469-1.093,0.871-1.562,1.164
		c-19.751,12.308-38.872,27.926-60.176,49.152c-34.715,34.591-66.567,74.934-97.376,123.334
		c-36.521,57.378-60.228,115.12-72.474,176.527C237.568,939.893,236.209,959.843,237.443,979.561z M488.402,566.537
		c0.952-8.532,1.851-16.592,5.812-23.61c4.973-8.813,11.879-16.532,21.113-23.599c0.298-0.228,0.541-0.505,0.798-0.771
		c1.679-0.628,3.434-1.046,5.324-1.092c10.469-0.253,20.525,1.579,30.541,6.332c-5.274,9.372-10.852,18.068-15.193,27.342
		c-4.376,9.35-7.524,19.275-11.516,29.748c-7.237-0.447-27.662-5.814-36.186-9.512c-0.343-1.529-0.57-3.078-0.719-4.634
		C488.384,566.675,488.395,566.603,488.402,566.537z M775.697,94.114c23.589,7.633,47.829,17.876,78.594,33.21
		c3.425,1.707,6.833,3.754,10.153,5.764c2.782,1.959,5.518,4.005,8.311,5.933c2.225,1.536,4.252,3.426,7.852,2.024
		c1.34-2.824,1.828-5.933,2.204-9.137c1.656-2.796,1.868-5.693,1.975-7.29c0.02-0.301,0.036-0.599,0.07-0.889
		c0.189-1.644,0.457-3.172,0.686-4.757c7.406-0.055,12.645,5.368,19.186,6.991c6.331,1.571,12.584,3.532,18.981,4.738
		c6.731,1.269,13.594,1.848,21.09,2.818c0.152,1.895,0.588,3.729,0.397,5.495c-0.44,4.058-0.908,8.114-1.354,12.171
		c-0.209,1.688-0.415,3.384-0.623,5.057c-0.595,4.803-1.191,9.605-1.752,14.411c-0.759,6.506-1.527,13.013-2.296,19.518
		c-1.081,9.156-2.163,18.313-3.218,27.472c-0.974,8.461-1.927,16.924-2.879,25.386c-1.07,9.497-2.138,18.994-3.237,28.488
		c-0.844,7.291-1.722,14.579-2.599,21.866c-0.962,7.986-1.923,15.973-2.841,23.964c-0.437,3.803-0.879,7.605-1.321,11.408
		c-1.624,13.951-3.303,28.377-4.662,42.632c-2.136,22.378-5.514,45.97-10.04,70.123c-7.07,37.728-13.736,71.349-20.377,102.785
		c-6.245,29.557-14.586,60.376-24.79,91.6c-3.297,10.091-7.489,20.226-11.543,30.028l-0.706,1.708
		c-3.973,9.611-7.817,16.4-12.454,21.997c-0.018,0.014-0.031,0.028-0.049,0.043c-4.387-10.875-6.483-21.754-15.082-29.239
		c0.449-2.945,0.64-5.613,1.279-8.17c9.222-36.916,18.931-73.718,27.63-110.756c6.239-26.565,12.074-53.21,18.958-79.634
		c4.06-15.586,6.124-31.689,9.196-47.537c4.023-20.755,8.815-41.372,11.316-62.399c0.953-8.016,1.912-16.045,2.452-24.096
		c1.211-18.026,3.407-35.973,3.225-54.109c-0.354-35.532-10.347-68.196-28.347-98.58c-1.734-2.927-4.046-5.61-6.48-8.009
		c-29.938-29.515-66.218-48.528-105.321-62.493c-10.419-3.721-21.537-5.783-32.5-7.604c-14.032-2.33-28.231-3.457-42.52-3.214
		c-12.344,0.211-24.579,1.01-36.61,3.992c-1.751,0.434-3.639,0.318-5.661,0.472c0.629-3.471,3.096-3.938,5.099-4.669
		c11.58-4.23,23.519-7.082,35.595-9.563c4.878-1.002,9.736-1.695,14.578-2.138C721.133,81.025,747.578,85.015,775.697,94.114z
		 M947.916,98.03c-0.247,0.6-0.532,1.192-0.894,1.767c-16.006,2.951-36.527-2.029-51.29-12.334
		c-0.269-0.723-0.351-1.391-0.315-2.021c3.8-7.09,8.766-12.422,15.122-16.162c4.293-2.527,8.971-3.96,14.298-4.378
		c8.189-0.652,14.472,2.193,19.766,8.931c2.549,3.242,3.65,6.013,3.573,8.985c-0.103,3.975-0.158,7.997-0.211,11.886
		C947.951,95.805,947.933,96.921,947.916,98.03z M890.967,95.978c0.26-0.415,0.53-0.853,0.804-1.336
		c1.922,0.597,3.782,0.893,5.371,1.711c13.502,6.953,27.639,11.42,42.983,11.406c1.146-0.001,2.303,0.155,3.436,0.341
		c2.069,0.339,3.551,1.556,4.018,3.343c-0.133,3.416-0.301,6.823-0.571,10.18c-0.079,0.966-0.179,1.941-0.263,2.91
		c-2.213,0.529-3.965,1.315-5.668,1.235c-18.241-0.862-35.76-4.506-51.668-14.009c-0.571-0.341-1.061-0.918-2.225-2.032
		C888.217,104.88,889.463,100.29,890.967,95.978z M831.554,709.407c0.107,4.949-0.492,10.027-1.126,15.402l-0.232,1.976
		c-0.542,4.674-1.823,9.351-3.729,13.977c-0.429,0.975-0.861,1.949-1.307,2.917c-0.519,1.091-1.017,2.185-1.611,3.269
		c-3.747,6.83-7.967,10.944-13.63,13.316c-9.316,2.976-19.542-1.734-23.496-12.821c-2.882-8.083-3.721-16.554-3.453-24.998
		c0.706-22.17,10.37-39.821,28.028-53.148c0.913-0.689,1.92-1.275,2.939-1.8c2.565-1.321,5.445-1.004,7.324,1.323
		c1.904,2.358,3.725,4.934,4.9,7.704c3.79,8.938,5.769,18.305,5.642,28.064c-0.001,0.07-0.001,0.143-0.002,0.213
		C831.617,706.296,831.519,707.823,831.554,709.407z M252.447,980.285c-0.069-0.551-0.182-1.113-0.215-1.652v0.001
		c-0.758-12.101-0.449-24.299,0.874-36.448c0.485-1.125,1.156-2.252,2.166-3.362c0.888,3.306,1.671,5.804,2.226,8.351
		c4.16,19.109,12.736,36.172,24.032,51.971c14.936,20.891,33.481,38.078,54.514,52.632c31.771,21.983,66.619,36.649,104.813,42.816
		c24.54,3.962,49.013,3.728,73.117-3.4c14.601-4.317,27.501-11.471,39.152-21.37c9.486-8.059,17.23-17.406,24.626-27.306
		c34.992-46.837,70.516-93.247,110.382-136.15c24.636-26.513,46.901-55.018,68.921-83.698C769.7,806.2,782,789.465,794.489,772.875
		c1.137-1.511,2.366-3.038,3.85-4.167c0.727-0.553,2.282-0.557,3.196-0.175c0.891,0.373,1.992,1.526,2.04,2.389
		c0.059,1.069,0.051,2.149,0.031,3.228c-0.19,1.027-0.38,2.101-0.569,3.115c-1.621,8.724-3.152,16.966-4.243,25.409
		c-0.637,4.919-2.435,9.598-5.831,15.171c-16.696,27.398-33.977,53.956-51.365,78.938c-40.474,58.151-79.444,107.23-119.14,150.043
		c-20.995,22.644-37.933,38.978-54.919,52.961c-3.158,2.601-6.52,5.168-9.772,7.651c-2.173,1.659-4.346,3.319-6.494,5.01
		c-16.178,12.739-36.209,19.933-61.235,21.993c-47.094,3.882-91.958-6.816-137.156-32.688
		c-29.107-16.661-53.509-38.158-72.532-63.896c-11.561-15.642-20.552-33.161-26.72-52.068c-0.183-0.561-0.294-1.138-0.444-1.708
		C252.903,982.819,252.667,981.553,252.447,980.285z M609.83,580.309c4.846-9.877,9.614-20.018,18.535-26.732
		c13.393,4.017,61.54,27.599,74.157,36.292c-0.475,1.189-0.718,2.735-1.571,3.785c-12.528,15.404-21.279,32.699-26.292,51.903
		c-0.285,1.089-0.781,2.128-1.248,3.16c-0.141,0.311-0.514,0.515-0.782,0.768c-0.751-0.046-1.549,0.051-2.242-0.174
		c-1.085-0.353-2.131-0.865-3.138-1.411c-22.189-12.028-44.372-24.07-67.017-36.36C600.272,600.248,604.99,590.172,609.83,580.309z
		 M592.579,606.961c-1.5,0.147-2.273,0.378-2.985,0.255c-1.126-0.194-2.25-0.533-3.309-0.969
		c-17.375-7.145-34.739-14.314-52.74-21.74c0.247-2.21,0.231-4.452,0.775-6.549c4.291-16.543,11.206-31.887,21.483-45.602
		c4.608-6.149,5.905-6.743,12.59-4.196c15.796,6.021,31.468,12.364,47.164,18.643c1.385,0.554,2.576,1.59,5.069,3.171
		C606.728,567.659,598.095,586.77,592.579,606.961z M680.971,650.36c4.185-20.323,13.131-38.294,27.023-53.747
		c0.732-0.814,1.841-1.29,3.291-2.273c5.997,1.884,11.35,5.606,16.975,8.715c6.035,3.337,12.082,6.684,17.892,10.39
		c5.379,3.431,11.533,5.854,16.363,11.26c-3.771,5.248-7.488,10.037-10.773,15.106c-3.118,4.813-6.058,9.786-8.574,14.933
		c-2.684,5.491-4.964,11.201-7.077,16.942c-1.956,5.313-3.457,10.793-5.08,15.949c-1.344,0-2.301,0.304-2.819-0.044
		c-15.547-10.468-31.05-21.001-46.948-31.785C681.137,654.069,680.608,652.123,680.971,650.36z M747.112,662.445
		c5.446-12.361,12.39-23.752,22.728-33.942c13.838,8.175,25.562,16.809,36.623,26.356c1.664,1.437,2.903,3.365,4.611,5.388
		c-2.301,2.196-4.206,4.019-6.116,5.838c-3.897,3.711-7.911,7.306-11.669,11.153c-8.017,8.207-13.019,18.037-14.952,29.345
		c-1.161,6.79-2.05,13.625-3.114,20.8c-0.979-0.115-2.339,0.148-2.936-0.408c-11.238-10.459-22.387-21.015-34.166-32.129
		C738.19,683.633,742.476,672.966,747.112,662.445z M609.111,120.75c25.575-18.095,54.868-20.91,84.816-19.919
		c15.338,0.507,30.671,2.35,45.657,6.046c6.331,1.561,12.743,3.054,18.809,5.384c19.391,7.45,38.238,16.076,56.262,26.506
		c16.122,9.328,29.996,21.441,43.537,33.997c2.49,2.309,4.528,5.259,6.246,8.22c14.477,24.961,23.323,51.647,25.477,80.604
		c1.321,17.762-0.083,35.373-1.453,52.981c-1.43,18.379-2.828,36.803-6.3,54.962c-2.237,11.698-4.644,23.363-6.867,35.064
		c-3.012,15.853-5.888,31.733-8.896,47.587c-0.787,4.149-1.633,8.307-2.81,12.357c-6.981,24.006-11.926,48.488-17.424,72.848
		c-4.142,18.352-9.357,36.46-13.928,54.718c-4.199,16.772-8.146,33.607-12.281,50.395c-0.81,3.291-1.974,6.496-3.137,10.264
		c-2.057-1.042-3.56-1.491-4.671-2.413c-27.357-22.709-57.756-40.788-88.707-57.956c-46.774-25.945-94.806-49.274-144.994-67.946
		c-14.768-5.495-29.675-10.628-45.296-13.246c-4.52-0.757-9.072-1.33-13.312-1.945c-0.691-0.459-1.208-0.971-1.611-1.515
		c-0.005-0.883,0.023-1.731-0.021-2.641c-1.248-25.777-1.328-47.173-0.254-67.334c0.818-15.375,2.071-30.352,3.504-46.932
		c1.635-18.927,3.5-37.861,5.109-53.886c2.551-25.414,6.377-48.525,11.696-70.651c1.523-6.333,2.969-12.77,4.369-18.994
		c2.322-10.329,4.723-21.007,7.497-31.32c7.12-26.472,18.531-50.344,33.917-70.956c5.838-7.822,12.656-14.88,19.592-21.621
		C605.32,122.352,607.122,121.439,609.111,120.75z M499.888,582.395c26.837,7.077,52.742,16.703,78.131,27.796
		c45.575,19.913,89.081,43.583,129.945,71.996c18.656,12.972,36.666,26.769,52.585,43.081c7.52,7.705,14.492,15.749,19.442,25.571
		c2.679,5.316,7.366,9.62,11.487,14.807c-1.329,2.106-2.566,4.475-4.175,6.555c-36.949,47.75-72.91,96.288-114.221,140.512
		c-23.914,25.601-45.549,53.141-66.807,80.961c-12.839,16.802-25.515,33.731-38.381,50.512
		c-7.766,10.13-16.977,18.943-27.162,26.517c-16.218,12.06-35.099,17.124-54.954,18.703c-28.411,2.259-55.974-2.112-82.803-11.455
		c-41.112-14.317-76.777-36.919-105.569-69.842c-10.694-12.227-19.597-25.644-26.056-40.622
		c-5.697-13.212-8.444-26.911-9.218-41.353c-0.833-15.562,0.939-30.589,4.414-45.348c13.159-44.13,32.925-86.695,59.911-129.092
		c30.216-47.47,61.399-86.982,95.334-120.793c20.49-20.416,38.778-35.374,57.556-47.074c1.402-0.875,2.583-1.84,3.647-2.723
		C486.892,579.272,490.051,579.801,499.888,582.395z"/>
	<path fill="#0B2FCB" d="M471.749,623.578c-6.043,8.017-7.268,16.737-3.445,26.092c3.161,7.735,8.311,13.75,15.487,18.048
		c2.96,1.773,6.068,3.385,8.742,5.529c3.328,2.668,3.989,6.55,2.08,10.364c-1.198,2.393-2.747,4.613-4.193,6.876
		c-7.559,11.832-10.136,24.704-8.417,38.595c1.913,15.458,8.722,28.588,18.961,40c15.845,17.66,35.88,27.852,59.313,30.056
		c23.385,2.2,44.364-3.975,59.81-22.987c3.849-4.738,7.954-5.631,13.124-3.724c3.223,1.19,6.35,2.71,9.378,4.346
		c3.379,1.825,6.497,4.141,9.904,5.903c6.537,3.381,13.366,6.045,20.905,5.668c10.346-0.517,18.098-5.732,24.079-13.888
		c5.365-7.316,4.646-15.147,1.741-23.078c-1.055-2.882-2.15-5.802-3.666-8.454c-4.955-8.669-9.525-17.64-15.291-25.749
		c-29.077-40.889-67.371-70.28-113.665-89.257c-19.709-8.079-40.293-12.721-61.693-13.819c-7.267,0.721-14.551,1.299-21.793,2.211
		C478.281,616.919,474.607,619.787,471.749,623.578z M482.816,623.837c7.214-0.939,14.441-1.774,21.662-2.652
		c18.402,0.516,35.996,4.573,52.999,10.889c46.231,17.173,84.303,45.528,114.063,84.877c8.839,11.687,15.963,24.398,21.653,37.961
		c3.489,8.317,1.854,13.659-4.563,19.609c-6.256,5.802-13.572,8.257-22.309,5.93c-6.064-1.616-11.345-4.566-16.704-7.599
		c-4.655-2.634-9.515-4.919-14.355-7.211c-7.33-3.471-13.43-0.841-18.926,4.152c-1.128,1.024-1.999,2.328-3.007,3.487
		c-9.848,11.326-22.492,17.257-37.237,18.469c-30.317,2.491-54.946-8.638-73.816-32.262c-8.598-10.764-13.427-23.167-13.712-37.195
		c-0.218-10.759,2.703-20.437,8.705-29.326c9.204-13.632,7.415-21.378-7.206-29.768c-7.287-4.181-12.871-9.572-15.962-17.473
		c-2.282-5.832-1.59-11.283,1.605-16.539C477.366,626.458,479.492,624.271,482.816,623.837z"/>
	<path fill="#0B2FCB" d="M450.549,947.907c-1.283-2.759-2.817-5.478-4.669-7.883c-10.101-13.119-22.937-22.471-38.946-27.018
		c-3.983-1.132-8.275-1.437-12.444-1.594c-6.159-0.232-11.131,2.228-14.513,7.603c-1.221,1.94-2.726,3.697-4.05,5.575
		c-6.882,9.764-9.276,14.854-0.53,29.46c0.979,1.634,2.177,3.155,3.402,4.621c8.779,10.499,19.567,18.305,32.313,23.195
		c4.589,1.761,9.56,2.528,14.356,3.749c7.618,0.098,13.694-2.475,18.23-8.466c2.072-2.737,4.138-5.498,5.957-8.404
		C453.871,962.008,453.825,954.953,450.549,947.907z M431.259,977.876c-3.758,0.318-7.77,0.648-11.337-0.307
		c-16.098-4.31-29.197-13.27-38.683-27.05c-2.114-3.071-3.314-6.856-4.477-10.46c-0.561-1.738-0.065-3.822,3.278-5.591
		c6.017,10.8,14.072,19.343,23.982,26.18c9.502,6.556,20.094,10.572,33.733,12.792C434.079,976.035,432.736,977.751,431.259,977.876
		z M438.529,965.352c-1.143,0.134-2.297,0.165-3.231,0.229c-1.368-0.156-2.533-0.199-3.658-0.432
		c-19.135-3.965-33.658-14.471-43.734-31.126c-1.166-1.928-1.812-4.258-2.304-6.488c-0.87-3.938,1.469-8.224,5.42-8.894
		c3.695-0.626,7.781-0.917,11.346-0.001c16.217,4.167,29.436,13.091,39.094,26.831c2.142,3.046,3.617,6.816,4.443,10.469
		C447.122,961.317,444.151,964.692,438.529,965.352z"/>
	<path fill="#0B2FCB" d="M511.573,865.385c7.641,0.158,13.805-2.223,18.467-8.217c1.649-2.121,3.377-4.187,4.937-6.372
		c6.033-8.449,6.202-17.191,0.819-25.943c-10.6-17.235-26.045-27.939-45.46-33.072c-2.2-0.582-4.577-0.544-6.878-0.683
		c-7.464-0.45-13.581,1.748-17.561,8.604c-1.729,2.98-4.07,5.598-5.936,8.508c-4.085,6.37-4.25,13.091-0.982,19.777
		c1.675,3.429,3.629,6.824,6.014,9.786c8.619,10.705,19.435,18.61,32.226,23.597C501.825,863.166,506.778,864.073,511.573,865.385z
		 M480.453,797.691c1.142-0.112,2.303-0.016,5.477-0.016c1.415,0.354,4.844,0.933,8.078,2.067
		c12.62,4.426,23.253,11.801,31.78,22.128c3.212,3.89,5.781,8.177,6.952,13.147c1.205,5.117-1.613,9.495-6.888,9.811
		c-4.158,0.249-8.603,0.224-12.529-0.968c-14.773-4.484-27.03-12.87-35.937-25.621c-2.147-3.073-3.833-6.714-4.755-10.342
		C471.171,802.144,474.428,798.281,480.453,797.691z M468.386,831.081c-1.775-2.447-3.365-5.226-4.198-8.096
		c-0.691-2.381-0.141-5.123-0.141-7.536c2.8-0.92,3.891,0.607,4.878,2.303c5.917,10.161,14.311,17.848,24.12,24.113
		c6.82,4.356,14.028,7.762,22.045,9.355c2.499,0.496,5.461,0.365,7.168,3.842c-1.902,1.019-3.716,2.64-5.71,2.906
		c-2.969,0.395-6.197,0.341-9.085-0.407C491.335,853.386,478.193,844.605,468.386,831.081z"/>
	<path fill="#0B2FCB" d="M493.297,973.292c-4.27-1.586-8.803-2.792-13.316-3.317c-6.811-0.792-12.909,1.059-17.181,6.999
		c-2.236,3.108-4.591,6.13-6.847,9.224c-4.475,6.135-4.764,12.791-2.051,19.625c1.121,2.825,2.533,5.627,4.304,8.085
		c10.164,14.105,23.413,24.094,40.136,29.174c3.261,0.991,6.715,1.348,8.195,1.633c8.561-0.005,11.687-1.064,16.364-5.787
		c15.159-15.305,15.185-25.363,3.188-41.303C517.619,986.369,506.539,978.213,493.297,973.292z M512.195,1037.56
		c-3.362,0.264-6.936,0.365-10.153-0.487c-16.588-4.393-29.624-13.959-39.048-28.263c-1.85-2.807-2.986-6.164-4.018-9.406
		c-0.893-2.805,0.286-5.773,1.82-5.879c2.487-0.172,2.959,1.962,3.931,3.515c11.053,17.655,26.414,29.445,46.793,34.441
		c1.806,0.443,3.803,0.729,4.959,3.494C515.112,1035.845,513.712,1037.441,512.195,1037.56z M519.55,1025.186
		c-1.148,0.078-2.306,0.011-4.157,0.011c-1.59-0.276-3.95-0.397-6.117-1.107c-15.897-5.212-28.762-14.504-37.662-28.824
		c-1.588-2.556-2.734-5.544-3.391-8.487c-1.2-5.37,1.529-9.44,6.934-9.783c4.131-0.262,8.599-0.04,12.471,1.276
		c14.589,4.96,26.673,13.608,35.386,26.481c1.903,2.812,3.31,6.1,4.292,9.366C529.22,1020.48,526.072,1024.739,519.55,1025.186z"/>
	<path fill="#0B2FCB" d="M569.862,940.331c-11.08-16.648-26.135-27.713-45.797-32.18c-1.118-0.254-2.252-0.511-3.391-0.588
		c-7.291-0.496-13.701,1.067-18.023,7.659c-1.257,1.916-2.671,3.756-4.203,5.462c-8.185,9.116-7.503,18.672-1.523,28.512
		c0.993,1.633,2.04,3.25,3.219,4.751c8.699,11.071,19.464,19.54,32.546,24.764c4.914,1.962,10.224,2.932,15.354,4.355
		c6.325-0.3,11.588-2.219,15.564-6.935c2.945-3.493,5.773-7.121,8.291-10.928c3.659-5.531,3.566-11.612,1.482-17.664
		C572.514,945.026,571.333,942.54,569.862,940.331z M548.719,975.756c-2.658-0.193-5.349-0.642-7.905-1.389
		c-15.331-4.477-27.547-13.445-36.608-26.495c-2.349-3.383-3.734-7.524-5.076-11.482c-0.764-2.253,0.004-4.582,3.086-5.955
		c5.919,10.304,13.452,19.308,23.148,26.477c9.581,7.084,20.517,11.243,32.476,14.114
		C554.817,975.183,551.881,975.985,548.719,975.756z M559.606,962.86c-0.761,0.049-1.528,0.007-3.887,0.007
		c-1.447-0.284-4.553-0.533-7.407-1.515c-14.519-4.995-26.508-13.56-35.095-26.377c-2.284-3.41-3.818-7.482-4.945-11.463
		c-1.095-3.869,1.678-7.704,5.668-8.573c2.197-0.478,4.558-0.717,6.776-0.463c3.013,0.344,6.084,0.934,8.914,1.994
		c12.817,4.797,23.694,12.436,31.871,23.457c2.677,3.609,4.836,7.849,6.195,12.13C569.649,958.21,566.137,962.441,559.606,962.86z"
		/>
	<path fill="#0B2FCB" d="M382.287,780.697c9.807,11.242,21.91,19.078,36.128,23.486c3.983,1.236,8.224,1.961,12.39,2.216
		c6.86,0.418,12.912-1.787,17.095-7.558c2.68-3.697,5.322-7.486,7.426-11.523c3.234-6.203,2.847-12.684-0.422-18.753
		c-1.979-3.675-4.364-7.233-7.101-10.379c-6.61-7.596-14.621-13.477-23.693-17.87c-7.288-3.529-14.845-6.153-23.011-6.539
		c-8.336-0.448-15.085,2.026-19.166,9.886c-1.229,2.366-2.936,4.482-4.394,6.732c-5.14,7.936-4.804,15.895,0.064,23.779
		C379.006,776.449,380.535,778.688,382.287,780.697z M392.87,741.799c3.268-1.604,6.697-1.987,10.125-1.333
		c18.137,3.459,32.916,12.412,43.915,27.358c0.903,1.227,1.586,2.641,2.218,4.037c3.932,8.689,0.295,14.45-9.978,14.637
		c-0.755-0.069-2.315-0.061-3.809-0.371c-17.243-3.576-31.425-12.108-42.089-26.234c-2.592-3.433-4.524-7.208-4.425-11.646
		C388.891,745.388,390.101,743.159,392.87,741.799z M382.388,758.486c1.275,0.536,2.595,1.461,3.387,2.577
		c12.843,18.083,30.028,29.04,52.115,32.106c1.017,0.141,1.96,0.806,3.676,1.544c-1.282,1.396-2.079,3.077-3.201,3.331
		c-3.292,0.748-6.835,1.709-10.063,1.204c-18.676-2.922-33.554-12.264-44.365-27.788c-1.689-2.425-2.54-5.504-3.439-8.387
		C379.793,760.814,381.193,757.984,382.388,758.486z"/>
	<path fill="#0B2FCB" d="M336.844,839.586c9.333,10.562,20.911,17.901,34.285,22.244c3.966,1.288,8.189,2.023,12.351,2.417
		c7.796,0.737,14.348-1.922,18.969-8.452c2.2-3.11,4.312-6.313,6.127-9.657c3.559-6.556,3.64-13.501-0.119-19.783
		c-12.433-20.782-30.967-32.224-55.264-34.752c-7.138,0.024-13.266,2.259-17.062,9.145c-1.845,3.345-4.131,6.445-6.052,9.751
		c-3.568,6.14-3.484,12.512-0.244,18.656C331.781,832.846,334.09,836.47,336.844,839.586z M347.822,799.331
		c3.263-0.743,6.888-1.235,10.11-0.603c16.737,3.285,30.561,11.658,41.174,25.062c1.868,2.359,3.404,5.13,4.466,7.947
		c2.654,7.038-0.774,11.957-8.465,12.572c-1.139,0.091-2.291,0.012-4.994,0.012c-1.859-0.452-5.255-1.056-8.507-2.106
		c-13.417-4.334-24.794-11.745-33.599-22.871c-2.629-3.322-4.791-6.908-5.5-11.199C341.806,803.891,343.653,800.28,347.822,799.331z
		 M334.987,816.592c2.562-0.816,3.526,0.871,4.565,2.457c8.713,13.3,20.962,22.237,35.554,27.92
		c5.983,2.33,12.438,3.449,19.859,5.434c-0.86,1.331-1.24,2.547-2.061,3.077c-3.366,2.171-7.136,2.657-11.039,1.942
		c-18.128-3.319-32.886-12.169-43.73-27.147C335.235,826.269,332.59,821.886,334.987,816.592z"/>
	<path fill="#0B2FCB" d="M446.587,850.472c-4.355-1.2-9.105-1.271-13.677-1.301c-4.874-0.032-8.885,2.258-11.802,6.224
		c-2.279,3.098-4.491,6.246-6.694,9.399c-5.167,7.396-5.179,15.1-1.022,22.858c1.624,3.032,3.536,5.975,5.714,8.633
		c8.46,10.325,19.022,17.962,31.365,22.898c4.928,1.971,10.32,2.782,15.501,4.121c7.781,0.21,13.397-3.125,18.289-8.707
		c11.348-12.949,12.086-23.604,1.648-37.273C475.805,864.094,462.688,854.909,446.587,850.472z M471.845,915.494
		c-3.37,0.408-6.991,0.846-10.208,0.052c-17.417-4.299-31.358-13.825-41.148-28.983c-1.611-2.494-2.551-5.543-3.23-8.468
		c-0.364-1.568,0.489-3.419,0.793-5.143c8.555,9.853,16.36,18.587,26.289,25.385c9.546,6.536,20.164,10.431,31.18,12.466
		C475.47,914.357,473.477,915.296,471.845,915.494z M486.206,892.554c1.722,5.571-1.403,9.751-7.365,10.449
		c-1.142,0.134-2.294,0.171-3.531,0.259c-1.831-0.252-3.783-0.328-5.632-0.807c-17.524-4.536-31.318-14.296-40.865-29.745
		c-1.369-2.215-2.162-4.942-2.61-7.538c-0.91-5.268,2.015-9.016,7.469-9.477c3.017-0.255,6.242-0.214,9.135,0.57
		c16.145,4.374,29.346,13.246,39.06,26.934C483.829,885.964,485.197,889.291,486.206,892.554z"/>
	<path fill="#0B2FCB" d="M614.153,879.24c-9.038-12.402-20.808-21.405-35.21-26.654c-4.606-1.678-9.64-2.602-14.542-2.937
		c-5.986-0.409-11.276,1.702-14.912,6.954c-1.742,2.517-3.604,4.965-5.567,7.315c-6.815,8.157-6.659,16.713-1.592,25.574
		c1.139,1.992,2.268,4.018,3.657,5.833c9.053,11.839,20.477,20.655,34.397,25.983c4.593,1.758,9.55,2.566,14.341,3.808
		c5.836-0.369,10.828-2.076,14.627-6.329c3.043-3.408,5.967-6.978,8.495-10.775c4.153-6.239,4.139-13.042,1.328-19.777
		C617.858,885.085,616.164,882,614.153,879.24z M600.312,916.775c-3.271,1.687-6.703,1.304-10.121,0.458
		c-17.609-4.357-31.293-14.274-41.047-29.479c-1.816-2.83-2.855-6.283-3.658-9.593c-0.518-2.137-0.067-4.602,3.424-5.52
		c5.498,10.577,13.308,19.409,23.093,26.49c9.357,6.771,19.654,11.5,30.4,12.963C603.355,915.755,601.537,916.143,600.312,916.775z
		 M606.471,904.877c-1.137,0.094-2.289,0.013-4.568,0.013c-1.143-0.19-3.486-0.297-5.645-0.983
		c-15.853-5.034-28.683-14.249-37.648-28.349c-1.989-3.128-3.126-6.948-3.97-10.607c-0.806-3.496,1.633-6.97,5.183-7.81
		c2.539-0.6,5.295-0.881,7.873-0.591c5.743,0.646,11.113,2.66,16.205,5.422c9.875,5.357,18.658,12.063,25.006,21.425
		c2.312,3.409,4.159,7.359,5.228,11.329C615.688,900.491,612.422,904.384,606.471,904.877z"/>
	<path fill="#0B2FCB" d="M342.254,926.711c10.175-0.063,14.251-2.002,19.5-8.071c12.198-14.105,12.274-25.864-0.162-39.803
		c-10.754-12.053-24.018-20.18-39.849-23.776c-3.324-0.755-6.83-1.044-10.245-0.999c-6.529,0.086-11.879,2.628-15.342,8.488
		c-1.364,2.308-2.822,4.574-4.411,6.731c-6.937,9.418-5.612,18.575,0.776,27.582c1.328,1.873,2.711,3.732,4.261,5.42
		c9.267,10.092,20.433,17.38,33.398,21.71C334.857,925.556,339.847,926.187,342.254,926.711z M307.335,861.785
		c3.249-0.799,6.877-1.331,10.106-0.732c16.831,3.118,30.631,11.608,41.257,24.982c2.318,2.917,3.918,6.566,5.185,10.115
		c1.546,4.332-0.955,8.53-5.448,9.77c-2.179,0.602-4.503,0.68-6.367,0.941c-1.945-0.279-3.485-0.383-4.967-0.73
		c-15.384-3.603-28.343-11.243-38.534-23.39c-2.97-3.541-5.465-7.396-6.412-12.027C301.3,866.553,303.191,862.806,307.335,861.785z
		 M297.573,892.12c-1.902-2.694-2.778-6.222-3.644-9.493c-0.486-1.834,0.371-3.714,2.888-4.443
		c13.536,20.539,32.524,32.767,57.978,35.984c-1.177,1.729-1.702,3.236-2.76,3.913c-3.003,1.924-6.436,2.353-9.941,1.752
		C323.496,916.641,308.474,907.564,297.573,892.12z"/>
	<path fill="#0B2FCB" d="M410.192,1012.646c-18.913-15.905-40.398-27.812-61.948-39.607c-0.672-0.368-1.343-0.755-2.056-1.027
		c-10.877-4.147-20.384,2.432-20.429,14.145c-0.028,7.185,2.276,13.714,6.736,19.181c3.855,4.725,8.011,9.422,12.819,13.108
		c12.476,9.564,25.336,18.634,38.156,27.74c3.106,2.206,6.517,4.129,10.039,5.563c3.48,1.418,7.279,2.053,9.287,2.59
		c2.955-0.175,4.108-0.199,5.252-0.318c11.036-1.143,17.338-8.269,16.981-19.276c-0.154-4.743-1.53-9.146-4.83-12.622
		C417.04,1018.796,413.704,1015.599,410.192,1012.646z M411.593,1045.84c-4.035,1.728-8.187,2.372-12.3,0.645
		c-3.521-1.477-7.132-3.007-10.224-5.193c-13.78-9.745-27.514-19.567-40.981-29.737c-3.912-2.954-7.066-7.003-10.236-10.825
		c-3.278-3.952-4.698-8.827-5.003-13.875c-0.381-6.291,4.221-10.58,10.277-8.092c3.189,1.311,6.551,2.344,9.498,4.075
		c18.531,10.888,37.08,21.778,53.601,35.683c2.927,2.464,5.744,5.097,8.339,7.905c2.402,2.599,3.732,5.793,3.519,8.955
		C417.952,1040.539,415.988,1043.957,411.593,1045.84z"/>
	<path fill="#0B2FCB" d="M668.736,823.951c-6.997-9.525-16.7-14.429-28.187-16.033c-4.289-0.599-8.462,0.29-12.211,2.479
		c-4.665,2.724-7.387,6.845-6.921,12.329c0.253,2.973,0.943,6.185,2.406,8.732c7.041,12.263,18.071,18.281,31.969,19.373
		c0.767,0,1.538,0.046,2.301-0.007c12.299-0.843,18.394-10.715,13.465-21.883C670.791,827.2,669.861,825.482,668.736,823.951z
		 M658.296,843.806c-0.751,0.113-1.517,0.137-2.785,0.247c-10.239-1.372-19.243-5.705-25.092-15.217
		c-0.97-1.578-1.451-3.531-1.834-5.378c-0.597-2.882,1.529-6.21,4.362-7.262c4.533-1.682,9.1-1.093,13.505,0.239
		c6.764,2.046,12.247,6.118,16.513,11.751c0.907,1.197,1.648,2.578,2.196,3.98C667.488,838.129,664.674,842.846,658.296,843.806z"/>
	<path fill="#0B2FCB" d="M419.518,693.41c7.228,9.238,16.856,14.473,28.386,15.534c6.668,0.614,13.267-1.075,16.796-7.602
		c3.172-5.868,2.132-11.978-1.379-17.446c-7.372-11.479-18.204-17.016-31.218-17.89c-1.973,0.205-3.508,0.282-5.013,0.535
		c-8.524,1.434-13.262,7.938-12.101,16.475C415.52,686.921,417.125,690.351,419.518,693.41z M430.734,673.125
		c12.004,0.056,21.256,5.635,27.265,15.993c3.792,6.536,0.253,12.149-7.455,12.532c-0.762,0.038-1.527,0.005-3.593,0.005
		c-9.54-1.349-18.383-5.968-23.681-15.887C419.715,679.109,423.128,673.089,430.734,673.125z"/>
	<path fill="#0B2FCB" d="M589.985,239.602c-5.035,33.457-10.076,66.915-14.892,100.404c-3.557,24.738-6.736,49.531-10.141,74.291
		c-2.985,21.714-6.107,43.408-9.056,65.127c-1.308,9.634-1.222,9.756,8.212,13.366c41.322,15.809,81.775,33.655,122.055,51.911
		c27.317,12.38,54.661,24.703,82.014,37.005c3.5,1.574,7.084,2.987,10.704,4.259c2.302,0.809,4.636-0.39,5.603-2.732
		c0.878-2.125,1.675-4.312,2.217-6.542c2.268-9.334,4.649-18.648,6.591-28.052c18.355-88.854,36.657-177.72,54.843-266.609
		c0.912-4.453,1.357-9.249,0.764-13.718c-1.857-13.992-6.898-26.857-16.399-37.492c-4.844-5.423-10.229-10.442-15.824-15.096
		c-11.6-9.65-24.745-16.924-38.245-23.533c-32.275-15.801-66.289-24.338-102.336-24.203c-2.308,0-4.631-0.168-6.923,0.03
		c-8.804,0.763-17.69,1.108-26.374,2.602c-13.886,2.388-26.332,8.406-37.195,17.415c-5.77,4.785-9.575,10.524-10.383,18.535
		C594.104,217.645,591.644,228.577,589.985,239.602z M602.151,204.498c0.451-3.21,1.588-5.967,3.958-8.084
		c2.858-2.552,5.674-5.25,8.889-7.282c11.184-7.069,23.255-11.52,36.559-13.102c43.332-5.152,84.167,3.232,123.179,21.939
		c12.849,6.161,25.193,13.217,36.513,21.969c6.418,4.962,12.32,10.41,17.48,16.695c8.075,9.832,12.046,21.356,13.892,33.687
		c0.441,2.946-0.069,6.149-0.68,9.122c-15.552,75.675-31.127,151.346-46.816,226.993c-4.527,21.826-9.4,43.58-14.153,65.359
		c-0.392,1.796-1.083,3.528-1.548,5.013c-4.785,0.994-8.071-1.47-11.492-2.988c-26.355-11.697-52.645-23.543-78.952-35.348
		c-39.285-17.629-78.652-35.061-118.878-50.474c-1.796-0.687-3.615-1.333-5.349-2.154c-2.963-1.404-4.013-3.328-3.509-6.479
		c1.578-9.863,3.341-19.697,4.799-29.577c2.806-19.012,5.478-38.043,8.156-57.073c3.428-24.365,6.637-48.762,10.251-73.099
		c4.122-27.756,8.597-55.46,12.896-83.19C598.996,225.788,600.656,215.155,602.151,204.498z"/>
	<path fill="#0B2FCB" d="M699.257,141.959c14.176,3.06,28.352,6.126,42.556,9.054c1.385,0.285,2.991-0.185,4.416-0.583
		c0.518-0.145,1.034-1.068,1.141-1.704c0.113-0.676-0.02-1.77-0.468-2.091c-1.199-0.858-2.558-1.662-3.972-2.019
		c-5.179-1.31-10.391-2.505-15.62-3.604c-8.962-1.884-17.946-3.662-26.385-5.376c-1.326,0.112-2.229-0.061-2.808,0.294
		c-0.886,0.542-2.025,1.367-2.172,2.223c-0.147,0.858,0.653,2.012,1.302,2.825C697.672,141.509,698.537,141.803,699.257,141.959z"/>
	<path fill="#0B2FCB" d="M703.995,125.037c2.857,1.078,5.829,1.92,8.819,2.559c7.512,1.602,15.052,3.076,22.593,4.538
		c4.52,0.876,9.055,1.686,13.6,2.42c1.852,0.299,4.741-1.656,4.249-2.83c-0.532-1.27-1.578-2.682-2.77-3.236
		c-2.053-0.955-4.37-1.413-6.618-1.872c-10.538-2.151-21.088-4.242-31.639-6.326c-1.88-0.371-3.787-0.608-5.111-0.817
		c-0.973,0.066-1.355,0.093-1.737,0.119c-1.738,0.117-3.03,1.03-3.017,2.737C702.371,123.267,703.192,124.733,703.995,125.037z"/>
	<path fill="#0B2FCB" d="M502.518,732.68c1.304,4.745,3.209,9.53,5.827,13.672c12.907,20.418,31.774,31.606,55.582,34.642
		c6.577,0.839,13.069-0.144,19.269-2.314c15.674-5.486,21.877-18.414,21.217-30.746c-0.336-6.269-1.846-12.187-4.86-17.574
		c-13.643-24.387-34.697-36.917-59.908-38.761c-5.228,0.345-7.931,0.34-10.577,0.728
		C508.754,695.302,497.078,712.878,502.518,732.68z M543.456,698.96c16.516,2.653,30.495,10.145,41.701,22.576
		c5.465,6.062,9.454,12.977,11.311,21.075c3.498,15.252-4.625,27.815-19.991,30.466c-3.015,0.52-6.107,0.599-9.76,0.937
		c-23.314-2.051-41.659-13.029-53.783-33.787c-2.079-3.56-3.231-7.816-4.095-11.902c-2.621-12.378,3.503-23.142,15.328-27.429
		C530.414,698.631,536.89,697.905,543.456,698.96z"/>
	<path fill="#0B2FCB" d="M551.015,675.476c4.092,3.613,8.832,6.07,14.013,7.673c9.492,2.937,16.873,8.422,22.719,16.622
		c3.958,5.552,9.152,10.268,14.082,15.063c2.154,2.095,4.848,3.855,7.604,5.072c12.04,5.318,23.598-1.71,22.775-14.67
		c-0.238-3.75-0.819-7.776-2.457-11.072c-2.528-5.088-5.675-10.015-9.325-14.368c-7.178-8.561-15.832-15.619-25.092-21.829
		c-9.78-6.559-20.825-9.498-33.176-10.45c-1.99,0.176-4.698,0.196-7.316,0.691c-6.298,1.19-10.049,5.696-10.34,11.976
		C544.217,666.341,546.415,671.415,551.015,675.476z M556.088,655.194c2.586-0.651,5.289-0.836,8.003-1.239
		c9.598,1.385,18.813,3.917,26.899,9.461c8.893,6.099,17.106,13.044,24.339,21.077c3.883,4.312,7.221,9.011,8.849,14.673
		c0.628,2.186,1.212,4.489,1.2,6.736c-0.036,6.614-5.908,10.517-11.951,7.939c-2.436-1.039-4.923-2.379-6.816-4.18
		c-4.437-4.222-9.159-8.367-12.629-13.337c-6.898-9.88-15.795-16.49-27.2-20.172c-3.581-1.156-6.933-3.229-10.138-5.276
		c-2.634-1.682-4.266-4.344-5.018-7.475C550.759,659.791,552.606,656.071,556.088,655.194z"/>
	<path fill="#0B2FCB" d="M513.127,661.535c0.894-0.056,2.056-0.055,3.195-0.213c6.156-0.858,10.971-3.661,13.068-9.807
		c1.994-5.845-0.593-10.6-4.452-14.645c-6.297-6.6-14.213-8.856-23.15-7.672c-5.712,0.756-10.386,3.221-12.246,9.041
		c-1.956,6.123,0.011,11.373,4.559,15.683C499.345,658.892,505.582,661.532,513.127,661.535z M500.644,636.66
		c1.432-0.465,2.966-0.619,3.761-0.777c6.785-0.065,11.935,2.027,15.923,6.632c3.895,4.498,2.162,9.847-3.622,11.45
		c-6.611,1.832-14.954-1.274-19.204-7.15C494.66,642.884,496.093,638.137,500.644,636.66z"/>
	<path fill="#0B2FCB" d="M664.15,764.928c9.875,0.169,16.156-7.982,13.688-17.765c-2.618-10.378-13.933-18.612-24.805-18.483
		c-8.277,0.098-14.707,7.097-12.799,16.385C642.342,755.322,653.778,764.75,664.15,764.928z M656.045,735.796
		c6.643,1.657,11.684,5.434,14.34,11.963c2.293,5.635-0.919,10.102-6.913,9.625c-7.207-0.573-13.954-6.117-15.773-12.96
		C646.189,738.743,650.307,734.364,656.045,735.796z"/>
	<path fill="#0B2FCB" d="M590.247,466.426c2.085,0.973,4.271,1.728,6.407,2.594c11.037,4.473,22.151,8.767,33.093,13.461
		c37.427,16.056,74.793,32.255,112.185,48.392c3.88,1.674,7.738,3.416,11.691,4.899c3.241,1.216,6.124-0.324,7.172-3.75
		c0.898-2.935,1.576-5.943,2.24-8.943c3.319-15.003,6.624-30.009,9.893-45.023c11.279-51.796,22.535-103.598,33.811-155.395
		c4.004-18.393,8.163-36.754,12.013-55.179c2.019-9.665,0.001-12.712-9.056-15.298c-10.71-3.058-21.395-6.208-32.105-9.267
		c-44.691-12.766-89.385-25.521-134.086-38.25c-3.651-1.04-7.213-2.871-12.547-1.306c-0.877,2.63-2.021,5.074-2.498,7.642
		c-7.017,37.768-14.16,75.515-20.832,113.345c-6.273,35.56-12.034,71.21-18.002,106.824c-1.46,8.714-2.898,17.433-4.251,26.164
		C584.582,462.441,585.586,464.25,590.247,466.426z M634.318,216.468c0.397-1.801,1.148-3.523,1.619-4.937
		c4.163-1.547,7.365-0.02,10.648,0.92c37.305,10.684,74.62,21.334,111.92,32.036c14.403,4.133,28.779,8.36,43.156,12.582
		c3.295,0.968,6.543,2.096,9.261,2.972c2.472,2.982,1.463,5.603,0.896,8.211c-9.877,45.433-19.704,90.876-29.634,136.298
		c-8.123,37.161-16.352,74.3-24.583,111.438c-0.818,3.691-1.977,7.307-3.002,11.045c-5.11,0.303-8.744-2.051-12.506-3.667
		c-21.189-9.095-42.265-18.456-63.493-27.459c-25.473-10.802-51.063-21.329-76.594-31.996c-3.138-1.311-6.224-2.747-9.678-4.278
		C592.751,443.882,626.911,250.06,634.318,216.468z"/>
</g>
</svg>
